<svg width="130" height="22" viewBox="0 0 130 22" fill="none" xmlns="http://www.w3.org/2000/svg">
<g clip-path="url(#clip0_1_1489)">
<path d="M129.513 5.43491L129.54 5.61458C129.274 4.67133 128.556 3.94349 127.643 3.67858L127.624 3.67399C125.907 3.20833 118.999 3.20833 118.999 3.20833C118.999 3.20833 112.109 3.19916 110.375 3.67399C109.444 3.94349 108.725 4.67133 108.464 5.59533L108.459 5.61458C107.818 8.96133 107.813 12.9827 108.487 16.566L108.459 16.3845C108.725 17.3277 109.443 18.0556 110.356 18.3205L110.376 18.3251C112.09 18.7917 119 18.7917 119 18.7917C119 18.7917 125.89 18.7917 127.625 18.3251C128.556 18.0556 129.275 17.3277 129.537 16.4037L129.541 16.3845C129.833 14.828 130 13.0368 130 11.2072C130 11.1402 130 11.0724 129.999 11.0046C130 10.9422 130 10.868 130 10.7937C130 8.96316 129.833 7.17199 129.513 5.43491ZM116.795 14.3467V7.66149L122.544 11.0092L116.795 14.3467Z" fill="white"/>
</g>
<g clip-path="url(#clip1_1_1489)">
<path d="M64.4878 5.3515C61.3656 5.3515 58.8379 7.87967 58.8379 10.9963C58.8379 14.1158 61.3683 16.6412 64.4878 16.6412C67.6101 16.6412 70.1378 14.113 70.1378 10.9963C70.1378 7.87692 67.6073 5.3515 64.4878 5.3515ZM64.4878 14.6603C62.4611 14.6603 60.8206 13.0203 60.8206 10.9963C60.8206 8.97234 62.462 7.33242 64.4878 7.33242C66.5137 7.33242 68.1551 8.97234 68.1551 10.9963C68.156 13.0203 66.5146 14.6603 64.4878 14.6603Z" fill="white"/>
<path d="M69.0223 0.070905C66.9965 -0.0235117 61.9787 -0.0189284 59.9511 0.070905C58.1693 0.154322 56.5976 0.584238 55.3306 1.85015C53.213 3.96582 53.4836 6.81666 53.4836 10.9976C53.4836 15.2766 53.2451 18.0614 55.3306 20.145C57.4564 22.268 60.3511 21.9902 64.4862 21.9902C68.7287 21.9902 70.1931 21.993 71.6932 21.4127C73.7328 20.6217 75.2723 18.8002 75.4228 15.5287C75.5182 13.5037 75.5127 8.49141 75.4228 6.46557C75.2411 2.60366 73.1667 0.261572 69.0223 0.070905ZM72.229 18.7452C70.8408 20.1322 68.915 20.0084 64.4596 20.0084C59.8722 20.0084 58.0326 20.0762 56.6903 18.7315C55.1443 17.1942 55.4241 14.7257 55.4241 10.9829C55.4241 5.91832 54.9039 2.27091 59.9914 2.01057C61.1603 1.96932 61.5044 1.95557 64.4468 1.95557L64.4881 1.98307C69.3774 1.98307 73.2135 1.47157 73.4438 6.55357C73.4961 7.71316 73.508 8.06149 73.508 10.9967C73.5071 15.5268 73.5933 17.3757 72.229 18.7452Z" fill="white"/>
<path d="M70.3608 6.44783C71.0901 6.44783 71.6813 5.85725 71.6813 5.12875C71.6813 4.40024 71.0901 3.80966 70.3608 3.80966C69.6315 3.80966 69.0403 4.40024 69.0403 5.12875C69.0403 5.85725 69.6315 6.44783 70.3608 6.44783Z" fill="white"/>
</g>
<g clip-path="url(#clip2_1_1489)">
<path d="M14.3167 3.56319H16.2775V0.151111C15.9392 0.104616 14.7758 0 13.4208 0C10.5936 0 8.65694 1.77668 8.65694 5.04211V8.04735H5.53711V11.8618H8.65694V21.4596H12.482V11.8627H15.4756L15.9509 8.04825H12.4811V5.42034C12.482 4.31785 12.7791 3.56319 14.3167 3.56319Z" fill="white"/>
</g>
<defs>
<clipPath id="clip0_1_1489">
<rect width="22.0199" height="22" fill="white" transform="translate(107.98)"/>
</clipPath>
<clipPath id="clip1_1_1489">
<rect width="22.0199" height="22" fill="white" transform="translate(53.4731)"/>
</clipPath>
<clipPath id="clip2_1_1489">
<rect width="21.479" height="21.4596" fill="white"/>
</clipPath>
</defs>
</svg>
